<svg xmlns="http://www.w3.org/2000/svg" viewBox="0 0 400 399.98"><title>Compendium</title><path d="M93.75,129.55V254.86a4.5,4.5,0,0,0,4.49,4.5h0c49,.07,85.4,30.7,89.2,75,.35,4.1.59-50.08.52-120.7l-.11-128.12-2.2-9C174.58,31.23,143.11,2.46,102.15.21L98.5,0A4.5,4.5,0,0,0,93.75,4.5V129.55M46.88,188.26V325.17a4.5,4.5,0,0,0,4.49,4.5H81.44c47.75,0,58.85,1,75.77,7,3.7,1.3,7,2.37,7.29,2.37,2.5,0-2.66-19.43-7.25-27.34-12.48-21.47-29.14-28.91-64.8-28.91H70.31V46.85H51.37a4.5,4.5,0,0,0-4.49,4.5V188.26M258.77,71.56c-13.89,2.15-34.17,9.08-44.89,15.36l-3.33,2,.51,9.65c.28,5.31.54,64.75.59,132.1l.07,122.44,6.53-4.26c24.87-16.21,36-18.45,93.66-18.94l36.75-.31a4.5,4.5,0,0,0,4.47-4.49V74.8a4.5,4.5,0,0,0-4.51-4.5l-39.05.07c-33.56.06-45.22.33-50.8,1.19M0,235.09V372a4.49,4.49,0,0,0,4.48,4.49l59.78.27,64.26.29,6.64,1.81c12.3,3.35,23.26,9.46,30.83,17.19l3.87,4h60.28l3.49-3.55c7.73-7.89,19-14.16,31.81-17.74,5.92-1.65,7.34-1.69,70.3-2l59.78-.27A4.49,4.49,0,0,0,400,372V121.67a4.49,4.49,0,0,0-4.5-4.5H376.56V353l-56.05.26-56.06.26-7.34,2.13c-11.25,3.27-19,7-29.84,14.23l-9.87,6.62H182.26l-5.78-4.14c-12.13-8.71-21.91-13.51-34.87-17.13-5.91-1.65-7.44-1.7-62.12-2l-56-.27V93.73H4.5A4.49,4.49,0,0,0,0,98.23V235.09"/></svg>