<?xml version="1.0" encoding="utf-8"?>
<!-- Generator: Adobe Illustrator 22.0.1, SVG Export Plug-In . SVG Version: 6.00 Build 0)  -->
<svg version="1.1" id="Layer_1" xmlns="http://www.w3.org/2000/svg" xmlns:xlink="http://www.w3.org/1999/xlink" x="0px" y="0px"
	 viewBox="0 0 1500 1500" style="enable-background:new 0 0 1500 1500;" xml:space="preserve">
<style type="text/css">
	.st0{fill:none;stroke:#000000;stroke-width:45;stroke-miterlimit:10;}
	.st1{fill:none;stroke:#000000;stroke-width:45;stroke-miterlimit:10;stroke-dasharray:514.6204,514.6204;}
	.st2{fill:none;stroke:#000000;stroke-width:45;stroke-miterlimit:10;stroke-dasharray:491.993,491.993;}
	.st3{fill:none;stroke:#000000;stroke-width:45;stroke-miterlimit:10;stroke-dasharray:488.3537,488.3537;}
</style>
<g>
	<path d="M796,165.5c63,4.9,125.6,20,185.6,45.3c147,61.9,261,177.2,321.2,324.9c22.3,54.6,36.1,111.2,41.7,168.3h45.1
		c-5.7-63.5-20.8-125.6-45.1-185.3c-31.5-77.2-76.8-146.5-134.7-205.9c-60-61.6-130.9-109.8-210.7-143.4
		c-65.3-27.5-133.4-43.8-203-48.8V165.5z"/>
	<path d="M155.5,704c5.8-59.3,20.5-118.1,44.3-174.6c61.9-147,177.2-261,324.9-321.2c58.1-23.7,118.5-37.9,179.3-42.7v-45
		c-67.3,4.8-133.1,20.2-196.3,46c-77.2,31.5-146.5,76.8-205.9,134.7c-61.6,60-109.8,130.9-143.4,210.7c-26,61.8-42.1,126.2-47.9,192
		H155.5z"/>
	<path d="M704,1356.2c-62.3-4.8-124.9-19.5-185.6-45c-147-61.9-261-177.2-321.2-324.9c-25.1-61.6-39.6-125.8-43.4-190.3h-44.9
		c3.9,71.1,19.5,140.7,46.7,207.3c31.5,77.2,76.8,146.5,134.7,205.9c60,61.6,130.9,109.8,210.7,143.4c65.3,27.5,133.4,43.8,203,48.8
		V1356.2z"/>
	<path d="M1346.2,796c-4,66.8-19.3,133.1-46,196.6c-89.5,212.7-288.6,346.5-504.2,363.5v45.3c67.3-4.8,133.1-20.2,196.3-46
		c77.2-31.5,146.5-76.8,205.9-134.7c61.6-60,109.8-130.9,143.4-210.7c28.9-68.7,45.5-140.6,49.5-214H1346.2z"/>
</g>
<circle class="st0" cx="750" cy="761" r="83.5"/>
<g>
	
		<ellipse transform="matrix(0.925 -0.3799 0.3799 0.925 -230.8684 342.345)" class="st1" cx="751.9" cy="756.1" rx="163.9" ry="163.7"/>
</g>
<circle class="st0" cx="750" cy="761" r="236.6"/>
<g>
	<circle class="st2" cx="750" cy="761" r="313.2"/>
</g>
<circle class="st0" cx="750" cy="761" r="389.8"/>
<g>
	<circle class="st3" cx="750" cy="761" r="466.3"/>
</g>
<circle class="st0" cx="750" cy="761" r="542.9"/>
<circle class="st0" cx="750" cy="761" r="696"/>
</svg>
