<svg xmlns="http://www.w3.org/2000/svg" viewBox="0 0 1499.98 1484.01"><title>Asset 3</title><path d="M1069.35,347.25c0,101.53-324,360.93-324,360.93S430.59,468.06,430.59,347.25V279.32h638.76s0-1.89,0,67.93Z"/><path d="M1079.71,1278.62H420.22v-76.1c0-49.22,327.18-162.8,327.18-162.8s332.31,107.54,332.31,162.8Z"/><path d="M1297.86,1350.44h-58.15V1135.76c0-169.72-154.18-321.43-240.16-392.87,85.21-74.79,240.16-232.77,240.16-391.94V133.56h58.15c38.91,0,70.46-28.42,70.46-66.78S1336.77,0,1297.86,0H202.1c-38.91,0-70.44,28.42-70.44,66.78s31.53,66.78,70.44,66.78h43.32V351c0,163,159,320.39,244.51,393.9-26,22.81-59.63,53.52-92.54,89.4-100.28,109.38-152,210.83-152,301.52v214.68H202.1c-38.91,0-70.44,28.44-70.44,66.78S163.19,1484,202.1,1484H1297.86c38.91,0,70.46-28.44,70.46-66.78s-31.55-66.78-70.46-66.78ZM364.12,1135.76c0-129.78,179.34-295.64,249.51-348.56,13.71-10.28,20.26-26.38,20.11-43.37s-6.23-33-20.11-43c-70-50.86-249.51-212.85-249.51-349.85V133.54h771.69v217.4c0,133.71-178.17,298.18-247.9,350.23-14,10.43-20.63,26.84-20.29,44.13s6.87,33.41,21.26,43.3c69.28,47.65,246.94,202.93,246.94,347.15v214.68H364.13Z"/><path d="M74.3,133H1425.65c41.94-4.08,74.33-30.93,74.33-66.22C1500,28.41,1461.71,0,1414.51,0H85.44C38.24,0,0,28.42,0,66.78,0,102.07,32.37,128.92,74.3,133Z"/><path d="M74.3,1483H1425.65c41.94-4.08,74.33-30.93,74.33-66.22,0-38.37-38.27-66.78-85.47-66.78H85.44C38.24,1350,0,1378.42,0,1416.78,0,1452.07,32.37,1478.92,74.3,1483Z"/><circle cx="1354.48" cy="741.5" r="66.5"/><path d="M1288,54V561.16c4.08,41.93,30.93,74.33,66.22,74.33,38.37,0,66.78-38.27,66.78-85.47V54Z"/><path d="M1421,1429V921.84c-4.07-41.93-30.93-74.33-66.22-74.33-38.36,0-66.78,38.27-66.78,85.47v496Z"/><circle cx="146.48" cy="741.5" r="66.5"/><path d="M80,54V561.16c4.08,41.93,30.93,74.33,66.22,74.33,38.37,0,66.78-38.27,66.78-85.47V54Z"/><path d="M213,1429V921.84c-4.07-41.93-30.93-74.33-66.22-74.33C108.4,847.51,80,885.78,80,933v496Z"/></svg>