<svg xmlns="http://www.w3.org/2000/svg" viewBox="0 0 1199 1150.91"><title>Asset 1</title><path d="M55.59,1002.59C36.77,1012.4,36,1015.22,36,1074.33c0,58.75.16,59.35,19.39,71.62l7.78,5H600.34c513,0,537.51-.2,544.92-4.35,17.46-9.77,18.73-14.58,18.74-71.09,0-57.39-1.58-63.72-18.22-72.51-13.87-7.32-1076.15-7.68-1090.19-.37"/><path d="M436.56,963.74c-2.12-4.88-5.73-6.65-15.89-7.81-34.89-4-62.44-31.32-79.42-78.81-23.28-65.11-59.4-100-103.56-100s-80.34,35-103.56,100c-17.23,48.23-45.29,75.64-81,79.08-11.29,1.09-15.48,5-15.48,14.29,0,11,7.35,15.17,23.59,13.38,42.91-4.73,79.69-40.58,99.84-97.33,38.72-109.06,115.11-108.31,153.68,1.51,19.25,54.8,56.91,91.15,99.3,95.82,18.66,2.06,28.34-6.62,22.46-20.13M314.34,918.52c-2.91-5.58-6.25-12.42-7.42-15.19l-2.14-5-3.95,7.38c-35.87,66.94-90.42,66.94-126.28,0l-4-7.38-2.14,5c-1.17,2.77-4.57,9.78-7.55,15.57l-5.41,10.53,1.35,2.49c.73,1.38,3.79,5.78,6.78,9.78,43.49,58.28,108.93,56.84,150.55-3.3,6.62-9.58,6.6-7.49.17-19.88m26-76.28c2.9,5.59,6.24,12.42,7.41,15.2l2.14,5,4-7.38c35.86-66.94,90.41-66.94,126.28,0l3.95,7.38,2.14-5c1.18-2.78,4.57-9.78,7.55-15.58l5.41-10.53-1.34-2.49c-.74-1.37-3.79-5.77-6.78-9.78-43.49-58.28-108.94-56.84-150.55,3.3-6.63,9.58-6.61,7.49-.17,19.88m-68.21-5.47-7-7.31,0,50.95c0,45.94.09,50.91,1.19,50.48.68-.25,3.84-3.49,7-7.19l5.81-6.72v-72.9l-7-7.31M243,818.62a29.84,29.84,0,0,0-10.55,0l-1.76.47V942.17l1.76.47a30.64,30.64,0,0,0,10.55,0l1.76-.47V819.09l-1.76-.47m-39.68,18.15-7,7.31v72.66l5.18,6.14a59.52,59.52,0,0,0,7,7.36l1.85,1.21,0-51,0-51-7,7.31m596.28,127c-2.12-4.88-5.73-6.65-15.89-7.81-34.89-4-62.44-31.32-79.42-78.81-23.28-65.11-59.4-100-103.56-100s-80.34,35-103.56,100c-17.23,48.23-45.29,75.64-81,79.08-11.29,1.09-15.48,5-15.48,14.29,0,11,7.35,15.17,23.59,13.38,42.91-4.73,79.69-40.58,99.84-97.33,38.72-109.06,115.11-108.31,153.68,1.51,19.25,54.8,56.91,91.15,99.3,95.82,18.66,2.06,28.34-6.62,22.46-20.13M677.34,918.52c-2.91-5.58-6.25-12.42-7.42-15.19l-2.14-5-3.95,7.38c-35.87,66.94-90.42,66.94-126.28,0l-4-7.38-2.14,5c-1.17,2.77-4.57,9.78-7.55,15.57l-5.41,10.53,1.35,2.49c.73,1.38,3.79,5.78,6.78,9.78,43.49,58.28,108.93,56.84,150.55-3.3,6.62-9.58,6.6-7.49.17-19.88M635.1,836.77l-7-7.31,0,50.95c0,45.94.09,50.91,1.19,50.48.68-.25,3.84-3.49,7-7.19l5.81-6.72v-72.9l-7-7.31M606,818.62a29.84,29.84,0,0,0-10.55,0l-1.76.47V942.17l1.76.47a30.64,30.64,0,0,0,10.55,0l1.76-.47V819.09l-1.76-.47m-39.68,18.15-7,7.31v72.66l5.18,6.14a59.52,59.52,0,0,0,7,7.36l1.85,1.21,0-51,0-51-7,7.31m-115.18,0-7-7.31,0,50.95c0,45.94.09,50.91,1.19,50.48.68-.25,3.84-3.49,7-7.19l5.81-6.72v-72.9l-7-7.31M422,818.62a29.84,29.84,0,0,0-10.55,0l-1.76.47V942.17l1.76.47a30.64,30.64,0,0,0,10.55,0l1.76-.47V819.09l-1.76-.47m-39.68,18.15-7,7.31v72.66l5.18,6.14a59.52,59.52,0,0,0,7,7.36l1.85,1.21,0-51,0-51-7,7.31m321,5.47c2.9,5.59,6.24,12.42,7.41,15.2l2.14,5,4-7.38c35.86-66.94,90.41-66.94,126.28,0l3.95,7.38,2.14-5c1.18-2.78,4.57-9.78,7.55-15.58l5.41-10.53-1.34-2.49c-.74-1.37-3.79-5.77-6.78-9.78-43.49-58.28-108.94-56.84-150.55,3.3-6.63,9.58-6.61,7.49-.17,19.88m110.79-5.47-7-7.31,0,50.95c0,45.94.09,50.91,1.19,50.48.68-.25,3.84-3.49,7-7.19l5.81-6.72v-72.9l-7-7.31M785,818.62a29.84,29.84,0,0,0-10.55,0l-1.76.47V942.17l1.76.47a30.64,30.64,0,0,0,10.55,0l1.76-.47V819.09l-1.76-.47m-39.68,18.15-7,7.31v72.66l5.18,6.14a59.52,59.52,0,0,0,7,7.36l1.85,1.21,0-51,0-51-7,7.31m-610.7-13c-21.3-28.37-44.76-43.2-73.3-46.35C45,775.6,37.69,779.77,37.69,790.83c0,9.5,4.07,13,17,14.48,27.92,3.25,48.32,18.54,65.87,49.38,5.12,9,4.88,8.88,7,3.47,1-2.46,4.19-9.31,7.12-15.21,6.42-12.9,6.43-10.5-.11-19.21M96.23,841.89c-4.12-4.81-9.29-9.66-10.3-9.68-.32,0-.59,21.78-.59,48.42s.27,48.44.59,48.44c1,0,7-5.66,10.71-10.11l3.55-4.25V846.5l-4-4.61m-31-21.68c-.94-.58-9.64-2.08-12.06-2.08H51v125l2.93-.07a51,51,0,0,0,7.22-1l4.3-.9.2-60.3c.11-33.17-.07-60.47-.39-60.67M1162.56,963.74c-2.12-4.88-5.73-6.65-15.89-7.81-34.89-4-62.44-31.32-79.42-78.81-23.28-65.11-59.4-100-103.56-100s-80.34,35-103.56,100c-17.23,48.23-45.29,75.64-81,79.08-11.29,1.09-15.48,5-15.48,14.29,0,11,7.35,15.17,23.59,13.38,42.91-4.73,79.69-40.58,99.84-97.33,38.72-109.06,115.11-108.31,153.68,1.51,19.25,54.8,56.91,91.15,99.3,95.82,18.66,2.06,28.34-6.62,22.46-20.13m-122.22-45.22c-2.91-5.58-6.25-12.42-7.42-15.19l-2.14-5-4,7.38c-35.87,66.94-90.42,66.94-126.28,0l-4-7.38-2.14,5c-1.17,2.77-4.57,9.78-7.55,15.57l-5.41,10.53,1.35,2.49c.73,1.38,3.79,5.78,6.78,9.78,43.49,58.28,108.93,56.84,150.55-3.3,6.62-9.58,6.6-7.49.17-19.88M998.1,836.77l-7-7.31,0,50.95c0,45.94.09,50.91,1.19,50.48.68-.25,3.84-3.49,7-7.19l5.81-6.72v-72.9l-7-7.31M969,818.62a29.84,29.84,0,0,0-10.55,0l-1.76.47V942.17l1.76.47a30.64,30.64,0,0,0,10.55,0l1.76-.47V819.09l-1.76-.47m-39.68,18.15-7,7.31v72.66l5.18,6.14a59.52,59.52,0,0,0,7,7.36l1.85,1.21,0-51,0-51-7,7.31m232.94-52.62c-4.6-7.42-9.9-8.71-25.88-6.3-27.33,4.12-50.77,19.89-70.95,47.73l-4.28,5.91,6.68,13.83c3.68,7.6,6.92,14.62,7.21,15.6.71,2.43,1.36,1.82,5-4.8,17-31,38.71-47.56,66.55-50.79,10.47-1.22,14-3,16.06-8,1.57-3.77,1.39-10.37-.38-13.2m-14.75,34.06a50.82,50.82,0,0,0-7.22,1l-4.3.9v121.1l4.3.9a51,51,0,0,0,7.22,1l2.93.07v-125l-2.93.08m-32.17,14c-.94,0-7.45,6.41-11.2,11l-2.91,3.6v67.9l3.54,4.25c3.72,4.45,9.71,10.1,10.71,10.11.33,0,.59-21.8.59-48.44,0-29.46-.29-48.44-.73-48.44"/><path d="M1144.47,504.21c-.1,0-.21,0-.31,0L1199,395l-95-192.85-95,192.85,51.32,102.19q-70.93-5.49-142-9.26l71.81-143L869.94,101.07,749.78,344.94l69.56,138.51Q735.7,480.38,652,479.64l92.78-184.77L599.5,0,454.21,294.9,547,479.67q-83.7.74-167.33,3.81L449.23,345,329.06,101.1,208.9,345l71.81,143q-71,3.8-142,9.26L190.05,395,95,202.17,0,395,54.84,504.21l-.3,0a20.58,20.58,0,0,0-18.28,20V744.7A18.39,18.39,0,0,0,54.58,763H1144.43a18.39,18.39,0,0,0,18.32-18.31V524.24a20.61,20.61,0,0,0-18.28-20Z"/></svg>