<svg xmlns="http://www.w3.org/2000/svg" viewBox="0 0 380.78 400.49"><title>Asset 2</title><path d="M90.35,163c-6.13-6.84-8.57-12.88-9.87-24.4-.91-8.17-8.88-11.67-14.38-6.31-2.17,2.13-2.19,2.24-1.78,10,1.22,23,18,42.87,41.1,48.8l4.94,1.26-1.21,2.45c-3.55,7.15-10.16,11.53-19.48,12.88-13.74,2-13.71,16.25,0,16.25,16.36,0,32.91-12.36,36.89-27.55.8-3,1.38-3.83,3-4.18,22.15-4.62,36.33-17,28.37-24.76-3.87-3.79-8.14-3.47-14,1C128.16,180.76,104,178.3,90.35,163Z"/><path d="M106.69,316.48c-12.92-10.4-34.61-15.78-40.49-10-3.9,3.82-1.77,13.46,3,13.59,21.25.58,41.93,18.8,42.08,37.09.06,8.4,2.76,12.11,8.79,12.11C136.43,369.23,127.25,333.05,106.69,316.48Z"/><path d="M119.67,243.43c-29.49,7.3-57.94,36.53-43.59,44.81,5,2.89,8.63,1.4,13.53-5.58,10.77-15.35,24.3-22.68,45.8-24.8,6.16-.61,8.66-3,8.66-8.16C144.07,242,135,239.63,119.67,243.43Z"/><path d="M144.07,65.32c-3,0-4.21.42-5.89,2.06C132.94,72.5,136.61,81,144.07,81S155.19,72.5,150,67.38C148.27,65.74,147.09,65.32,144.07,65.32Z"/><path d="M184.06,26.65c-.31,0-2.36-2.28-4.55-5.08C166.31,4.72,142-3.64,122.58,2,107.37,6.35,93.09,18.12,85.77,32.31c-1.1,2.12-2.26,3.32-3.21,3.32-2.74,0-14,6.12-18.53,10.06A44,44,0,0,0,48.29,78.05l-.4,8.44-3,1.51c-21,10.46-33.36,39.68-27.07,63.94l1.66,6.46-4.32,4.44C-1.26,179.66-4.63,205,6.48,227.63l3.16,6.45-3.12,5.66a54.15,54.15,0,0,0,6,60.29l3.62,4.33v8.09c0,29.61,24.86,56.68,52.14,56.77,3.69,0,3.82.1,7.34,4.89,26.55,36.15,82.21,34.93,105.51-2.32a20.78,20.78,0,0,1,3-4.08ZM160.3,130.56c5.83.75,10.46,3.58,13.14,8l2.22,3.69.22,75.77.22,75.78-4.22-4c-18.09-17.25-51.88-23.09-51.78-8.95,0,6,2.16,7.59,11.8,8.66,46.61,5.16,59.61,62.17,20,87.84-21.31,13.82-51.6,5.84-65.29-17.2-4-6.68-4.94-7.15-15.75-7.52-22.75-.78-37.54-17.67-37.57-42.89l0-12.22-4.16-4.3c-12.6-13-15.66-28.13-8.87-43.71l1.61-3.68,3.31,2.21c12.91,8.65,31.65,12.42,36.79,7.4,5.4-5.28,1.74-13.07-6.55-13.94-36.29-3.82-52.31-47.79-25.35-69.58,9.81-7.93,10.23-9.45,5.58-19.89-13.72-30.77,21.69-66,51.66-51.35,12.58,6.14,23.86,21.67,24,33,.06,8.4,2.76,12.11,8.79,12.11,8,0,10.21-7.7,6.43-22.14C119.87,98.3,97.85,81,72.18,81H64.67l.46-4.39c2.27-21.51,30.29-33.69,48.27-21,9.55,6.74,11.95,7.32,16.15,3.86C137.67,52.77,124.5,38,108,35.24c-4-.66-4-1.18.54-5.88,11.91-12.43,28.55-16,42.74-9.11a45.2,45.2,0,0,1,22.54,25.9c1.49,4.3,3.42,71.52,2.05,71.52-.16,0-2.35-.71-4.85-1.57-11.23-3.85-19-1.3-19,6.25C152.06,127.35,154.54,129.83,160.3,130.56Z"/><path d="M372.88,226.72l-3.23-2,.53-18.69c.43-15.35.74-18.85,1.78-19.59,7.48-5.3,10-11.39,8.3-19.83a15.49,15.49,0,0,0-10.08-11l-3.54-1L361.34,136,356,117.45l3.35-3.79c9.08-10.24,6.1-27.85-5.69-33.64-3.58-1.77-12.68-2.29-15.12-.88-1.49.86-41.89-49.52-41.54-51.8.09-.59.56-2.81,1-4.94,4.54-19.77-20.48-31.16-30.77-14a15,15,0,0,0-2.13,5.15c0,.88-.46,1.62-1,1.64s-6.77,1-13.79,2.14l-12.75,2.11-1.93-2.61c-5-6.81-15.95-8.27-22-3-5.73,5-6.82,9.58-5.12,21.43.18,1.22-3.44,6.72-13.09,19.75V74l2.79-3.74c9.31-12.43,17.57-23.49,18.36-24.56,3.16-4.31,4.42-2.18,7.62,12.91,3.73,17.62,3.8,16-.92,21.26-2.22,2.49-4.28,5.76-4.59,7.28a6.75,6.75,0,0,1-1.5,3.39c-.72.48-12.07,1.58-21.76,2.31V104.5l3.2-.23c8.31-.6,16.1-1.3,17.32-1.56,1.92-.4,2.44,0,3.83,2.93a24.09,24.09,0,0,0,3.77,5.58c1.19,1.21,2,2.61,1.84,3.12s-2.11,6.8-4.29,14l-4,13-5,.41a30.22,30.22,0,0,0-6.22,1c-.81.38-3.72-3.12-10.49-12.66v19.37c.62,1.09.55,1.57,0,2.17v36.93l2.5-1.88,3.46,2,3.46,2.05-1,5.87c-.58,3.23-3.35,18.89-6.17,34.8-.85,4.79-1.58,8.85-2.22,12.29v28.93a7.64,7.64,0,0,1,2.6,1.61c2.87,2.44,2.67,6.52-.45,9a5.1,5.1,0,0,1-2.15,1.07v27.11c.64-4,1.13-6.8,1.29-7.25.41-1.13,20.76,55.32,24.74,68.6a16.23,16.23,0,0,1-3.41-1.92c-19.52-12.39-20-12.71-20.17-14.89-.51-4.95-1-7.16-2.45-9.25v23.42l10.13,6.46c10.82,6.89,12.7,8.41,12.7,10.24,0,15.51,21.22,18.94,25.91,4.19l1.07-3.36,19.6-7.27,19.6-7.26,3.14,2.72C300,386.62,316,373,312,355.06c-.18-.83,2.87-5.31,7.37-10.81l7.69-9.4,4.66.45c17.2,1.67,27.82-17.95,18.17-33.57-1.43-2.31,12.25-43.58,14.46-43.61C379,257.92,385.35,234.35,372.88,226.72ZM336.8,96.52c3.07-10,17.27-7.79,17.27,2.73,0,2.56-.63,4-2.8,6.32C344.69,112.68,333.93,105.94,336.8,96.52Zm-2.66,20.14a21.72,21.72,0,0,0,7.81,3.27l3.61.43,5.38,18.82c2.95,10.35,5.3,18.92,5.21,19s-10.51-6.13-23.14-13.91-23.08-14.71-23.21-15.42c-.68-3.72,1.31-5.65,10.71-10.35l9.42-4.71ZM320.45,219.34c-.4-.37-19-74.45-19-75.78-.08-4.51,3-3.23,26.32,11.05l23,14.06.07,3.56a19.49,19.49,0,0,0,.8,5.34c1.11,2.76,1.21,2.57-13.18,23.39C324.59,221,323.5,222.1,320.45,219.34Zm3,23.87c-4,3.65-10.57.37-10.57-5.27,0-2.95,3.49-6.53,6.34-6.49C325.18,231.52,327.93,239.15,323.49,243.21Zm-43.57,44.24-3.87-.55a17.51,17.51,0,0,1-4.27-.94c-.86-.82-7.21-33.64-6.56-33.9,2.78-1.12,7.77-6.27,9.65-10s2.55-4.39,4.31-4.05c1.13.23,6.82,1.1,12.63,1.94,8.11,1.17,10.66,1.86,10.95,2.94a26.87,26.87,0,0,0,1.44,3.63c1.31,2.75,2.46.62-12,22.45Zm-.67,25.92c-5.39,5.83-14.06,1.64-14.06-6.79,0-3.18,4.85-8.41,7.79-8.41C280.62,298.17,284.52,307.66,279.25,313.37Zm-43.56-134.3c2.17-4.56,2.59-6.43,2.59-11.6v-6.16L258,151c18.21-9.53,21.91-11,20.93-8.25l-9.44,26.39c-5,13.95-9.7,27.07-10.47,29.15-1.39,3.71-1.48,3.78-5.38,3.78a19.83,19.83,0,0,0-5.89.79c-1.75.72-2.45,0-8.28-8.78l-6.37-9.57Zm-5.11-31.46c-1.78-1.55-3.24-2.85-3.23-2.89s2-6.28,4.43-13.87l4.43-13.8,4.06-.55c4.45-.6,7.08-1.83,9.91-4.61l1.85-1.83,10.08,5.65,10.08,5.66v9.27L253,140.53l-19.18,9.89Zm11.87,103.9a25.29,25.29,0,0,0,7.71,2.91l3.89.6,3.45,16.46c4.25,20.35,4.22,19.87,1.32,19.16-24.22-5.88-47.54-13.56-47.78-15.72s7.31-9.24,26.68-25C238.26,249.51,240.19,250.15,242.45,251.51Zm-.06-30.31c5.63-10.76,20.28-9.45,24.72,2.21,1.23,3.23,0,10.55-2.29,13.83C254.78,251.47,234.23,236.78,242.39,221.2Zm62.51,7.12c-.86,1.65-1.11,1.65-11.86.1-15-2.18-14.43-1.95-15.08-5.71A26.67,26.67,0,0,0,271,209.36l-3.13-3.3,10.55-29.38c5.8-16.15,10.69-29.77,10.87-30.26.74-2,1.88,1.89,10.79,37.06,10.73,42.35,10.06,38.73,7.58,41.21A18.71,18.71,0,0,0,304.9,228.32Zm-22-104.58c1.79-8.82,14.74-9.33,16.3-.65.19,1.09.4,2.09.46,2.22a16.19,16.19,0,0,1-1.05,3.28C294.89,138.17,280.84,133.82,282.88,123.74Zm5.7-87c.13-.15,39.57,49.41,39.92,50.17,0,.06-.5,1.55-1.18,3.32A41.37,41.37,0,0,0,325.47,98l-.62,4.57-9,4.35c-10.52,5.09-9.83,5-13,2.1a17.84,17.84,0,0,0-5.92-3.25l-3.44-1L291,70.86C289.55,52.21,288.48,36.86,288.58,36.74ZM287,14.93c1.5,3,1.52,3.41.33,5.84-2.81,5.69-9.13,5.6-11.34-.16C273.11,13.22,283.42,7.9,287,14.93Zm-9.56,22.9c.2.22,1.54,15.74,2.95,34.47l2.58,34.07-2.19,1.49a11.84,11.84,0,0,0-2.66,2.31c-.26.45-5-1.67-10.55-4.73l-10.08-5.56-.18-5.35c-.16-5-1.62-9.6-4-12.63C252.21,80.6,276.3,36.65,277.39,37.83Zm-43.84,2.74a16.16,16.16,0,0,0,3.65-5.36c2.06-4.61,1.07-4.22,17.15-6.78,11.43-1.81,11.82-1.82,12.91-.24,1.3,1.9,2.6-.76-13.18,26.89-10.1,17.7-10.83,18.74-13.2,18.77l-2.51,0-3.33-16-3.33-16Zm13,52.24c.2,1.1.41,2.11.47,2.24a16.32,16.32,0,0,1-1,3.19c-4,10.39-17.8,8.07-17.8-3C228.16,84,244.55,81.82,246.51,92.81Zm-20-61.64a4.43,4.43,0,0,1-6.73.3c-3.12-3-.92-9.2,3.29-9.2C227.64,22.27,229.73,27.69,226.52,31.17ZM214.59,153.1c10.23,0,16.13,10.67,11.42,20.65-2.83,6-10.07,9-15.6,6.52C196.43,174,199.64,153.1,214.59,153.1Zm-6.45,81.24c2.87-16.05,5.64-31.84,6.15-35.09.84-5.43,1.11-6,3.19-6.41,1.24-.27,3.21-.75,4.36-1.06,3.22-.88,15.21,16.75,13.32,19.56-.68,1-2,3.44-3,5.4-2,3.8-2.61,14.78-1.24,20.53.64,2.7.47,2.89-13,14.24-7.48,6.33-13.92,11.62-14.3,11.76S205.27,250.39,208.14,234.34ZM231.44,389c-1.84,0-2.78-2.51-1.54-4.12s3-1.54,3.92.32A2.53,2.53,0,0,1,231.44,389Zm.11-21.37c-.28,0-5.67-15.13-12-33.6s-12.13-35.44-12.92-37.71c-1.43-4.07-1.42-4.13.37-5.9l1.81-1.8,21,6c11.54,3.29,21.91,6.23,23,6.53,1.94.52,2,.85,1.81,5.71-.2,4.12.16,6,1.76,9.16,2.72,5.42,3.18,4.22-11.41,29.33C237.88,357.56,231.83,367.59,231.55,367.59Zm52.49-15a16.51,16.51,0,0,0-2.14,5.94l-.41,3.3-19.82,7.35c-10.89,4.05-20.09,7-20.43,6.67s5.56-11.4,13.11-24.48l13.72-23.79h8.23L281,338.45c2.56,6,4.69,11,4.73,11.21A14.1,14.1,0,0,1,284,352.59Zm16.54,13.22c-4.56,4.94-11.2-2.09-6.87-7.27,2.69-3.21,8.51-.67,8.51,3.71A6.36,6.36,0,0,1,300.58,365.81Zm9.76-28.43c-4.87,5.79-7.95,8.77-8.71,8.46a11.46,11.46,0,0,0-3.47-.5c-2.11,0-2.62-.8-7-11l-4.75-11,2.16-3.06A12.4,12.4,0,0,0,290.7,316c0-.91,1.87-1,8.85-.53,14.27,1,14.79,1.14,15.36,4.46a13.86,13.86,0,0,0,1.7,4.58C318.56,327.28,318.2,328,310.34,337.38ZM317,303.29l-1.22,2-11.62-1-11.62-1-1.74-4.46c-2.06-5.26-3.53-2.15,12.17-25.78,14.87-22.39,13.82-22.49,19.92,1.83,2.54,10.16,4.67,18.72,4.73,19s-.74.8-1.77,1.07C323.85,295.47,319,300.09,317,303.29Zm24.63,15.61a9.49,9.49,0,0,1-3.21,3.6c-8.06,5.15-16.95-5.41-11.52-13.67C333.16,299.36,346.15,308.24,341.65,318.9Zm4.11-43.82c-3.76,10.38-7,18.32-7.23,17.65s-2.47-9.63-5-19.9l-4.63-18.67,2.65-2.87a16.48,16.48,0,0,0,3.2-4.75c.57-1.94,13.55-1.86,14.25.09a33.21,33.21,0,0,0,2.21,3.66C353.62,254,353.93,252.56,345.76,275.08Zm9.95-48.8a19.26,19.26,0,0,0-4.52,4.92c-2.71,4.65-14.5,3.8-16.43-1.18-.95-2.45,16.63-30.71,24.29-39.05.88-1,.93,14.36.08,25.93C358.61,224,358.51,224.25,355.71,226.28Zm12.54,17.25c-2.56,4.13-8.53,2.47-9.09-2.53-.26-2.34,3-6,5.3-6C367.42,235,370,240.74,368.25,243.53Zm-6.78-71.91c0-4.54,4.46-6.58,7.41-3.39,1.93,2.09,1.91,2,.7,4.84C367.78,177.33,361.47,176.21,361.47,171.62Z"/></svg>