<svg xmlns="http://www.w3.org/2000/svg" viewBox="0 0 1437 1437"><defs><style>.a,.b,.c,.d{fill:none;stroke:#000;stroke-miterlimit:10;stroke-width:45px;}.b{stroke-dasharray:514.62 514.62;}.c{stroke-dasharray:491.99 491.99;}.d{stroke-dasharray:488.35 488.35;}</style></defs><title>commu</title><path d="M764.5,123a598,598,0,0,1,185.57,45.27c147,61.85,261,177.23,321.22,324.89A599.06,599.06,0,0,1,1313,661.5h45.06A642.84,642.84,0,0,0,764.5,78Z"/><path d="M124,661.5a598.77,598.77,0,0,1,44.3-174.57c61.85-147,177.23-261,324.89-321.22a598.5,598.5,0,0,1,179.3-42.66v-45A642.94,642.94,0,0,0,78.91,661.5Z"/><path d="M672.5,1313.7a594.44,594.44,0,0,1-185.57-45c-147-61.85-261-177.23-321.22-324.89a597.8,597.8,0,0,1-43.42-190.3H77.37A642.85,642.85,0,0,0,672.5,1359Z"/><path d="M1314.72,753.5a597.46,597.46,0,0,1-46,196.57c-89.51,212.67-288.62,346.49-504.19,363.52v45.35A642.77,642.77,0,0,0,1359.65,753.5Z"/><circle class="a" cx="718.5" cy="718.5" r="83.52"/><ellipse class="b" cx="720.43" cy="713.6" rx="163.92" ry="163.68" transform="translate(-217.08 327.19) rotate(-22.33)"/><circle class="a" cx="718.5" cy="718.5" r="236.64"/><circle class="c" cx="718.5" cy="718.5" r="313.2"/><circle class="a" cx="718.5" cy="718.5" r="389.76"/><circle class="d" cx="718.5" cy="718.5" r="466.32"/><circle class="a" cx="718.5" cy="718.5" r="542.88"/><circle class="a" cx="718.5" cy="718.5" r="696"/></svg>