<svg xmlns="http://www.w3.org/2000/svg" viewBox="0 0 400.73 400.11"><title>cumene</title><path d="M181.16.3,170.07,1.82C147.32,4.94,112,17,113.25,21.15c.62,2,4.92,10.71,5.29,10.71.13,0,3.5-1.41,7.48-3.14,55-23.87,116.79-20,169.38,10.54l4.87,2.83,3.55-5.55c4.24-6.61,4.6-5.79-5-11.28-19.31-11-44.32-19.64-68.43-23.56C223,.49,187.2-.53,181.16.3M95.22,29.15c-3,1.93-5.36,3.89-5.24,4.36.17.65,5.48,9,6.86,10.71.14.19,9.15-5.13,11.16-6.59.43-.32-6.18-12-6.78-12a52,52,0,0,0-6,3.52m240.56,9.72a32,32,0,0,0-11.4,4.81c-1.64,1.17-5.46,2.24-12.26,3.43C284.4,52,274.73,65.24,291.57,75.34c3.69,2.21,6.28,3.08,16.94,5.71,2.71.67,3.35,1.28,4.86,4.57,6.44,14.07,27.84,22.1,40.9,15.35,3.3-1.7,3.22-1.77,8.43,7.33,16.63,29.06,25.5,65.23,24.07,98.22C381.67,324.89,271,408.72,156.3,381.17c-4.34-1-6.21-1.21-6.42-.58-2,5.8-3.28,12.33-2.47,12.6,31.54,10.63,86,8.23,122.21-5.38,117.71-44.27,167-184,102.61-290.63l-4-6.56,2.54-4.47,2.54-4.47,7.09-1.78c13.83-3.48,19.86-8.26,19.86-15.77,0-8.76-10.19-14.64-30.34-17.49-5-.7-7.57-1.55-10.91-3.56-6.89-4.15-15.92-5.78-23.27-4.21M71.62,46.2c-69.84,58.47-91.41,157.57-52.23,240,10.18,21.4,21.74,37.42,40.51,56.14l13.21,13.18-.82,3.23c-9.59,37.79,43.56,58.46,60.19,23.41,15.2-32.05-20.48-60.47-49.82-39.68-3.3,2.34-26.11-21.77-38.83-41.05C-7.6,223.49,9,114.36,81.08,56.47c7-5.6,6.81-4.84,2.27-11s-3.47-6.16-11.73.75M183.9,51.93C136.29,57,92.42,86.68,69.38,129.32c-2.68,5-3.34,5.66-5.25,5.66-26.93.06-34.87,38.47-10.28,49.73,26,11.9,49.5-20.94,29.75-41.55-4.4-4.59-4.48-3.37.81-12.16,49.82-82.87,168.11-88.77,224.47-11.2,1.85,2.55,3.63,4.93,3.94,5.29.56.63,11.72-6.26,11.68-7.21a67.45,67.45,0,0,0-4.64-6.66,150.07,150.07,0,0,0-136-59.29m165.45,1.45c8.26,3.45,14.72,15.31,8.86,16.28-10.22,1.69-34.47.29-34.47-2,0-10.09,15.26-18.6,25.61-14.29M383,63.86c.73.41-.12,1-2.68,1.88-5.19,1.77-5.53,1.68-6.4-1.75l-.76-3,4.38,1.14A38.36,38.36,0,0,1,383,63.86m-72.4,0c-.47,3.23-1.09,3.42-6.23,1.87l-4.48-1.34,4.3-1.39c6.22-2,6.82-1.94,6.41.86M192.07,78.64c-9.35,4.25-13.92,16.49-9.67,25.88,6.12,13.52,24.75,15.85,33.14,4.15,2.75-3.85,3.45-3.86,14.61-.19,73.88,24.27,89.66,122.21,27.2,168.8l-2.73,2,3.71,5.57c4.47,6.72,3.54,6.68,11.29.48,69.68-55.75,45.11-169.45-41.43-191.74-8.44-2.17-8.63-2.27-10.06-5.21-4.71-9.68-16.52-14.1-26.06-9.77m162.79,6.11c-4.7,5.66-17.18,6.25-23.34,1.1l-2.44-2h13.28c10.26,0,13.1.22,12.5.94m-151,7.53c4.26,3.66,2,9.89-3.6,9.89-3.53,0-5.73-2.14-5.73-5.6,0-2.73,3.17-6.12,5.73-6.12a7.45,7.45,0,0,1,3.6,1.83M162,96.65c-61.45,22.68-89.49,94-60,152.67,2.72,5.41,3,6.42,2.26,8.52-6.21,17.81,15,33.53,30.31,22.45,16.51-12,4.93-39-15.1-35.23l-3.62.68L113.44,241c-24.77-49,2.71-115.51,54.44-131.74,4.36-1.36,4.34-1.25,2.05-8.34l-2.05-6.38L162,96.65m20.47,26c-2.54.56-4.68,2-8.7,5.77-5.28,5-5.39,5-11.29,5.78-9.87,1.26-13.67,4.44-16.77,14.05-1.71,5.32-1.91,5.57-7.07,8.91-8.6,5.56-10.66,10-9.38,20.2L130,183l-3.1,5.21c-5.52,9.3-5.52,14,0,23.34l3.1,5.21-.71,5.59c-1.28,10.22.78,14.65,9.38,20.21,5.16,3.34,5.36,3.59,7.07,8.91,3.1,9.61,6.64,12.59,16.63,14,6.06.84,6.19.91,11.42,5.84,7.43,7,11.54,7.74,22.18,3.94,3.36-1.2,4.31-1.25,7.42-.37,10.4,3,10.74,3,14.46,2.21,2.93-.62,4.78-1.81,9-5.79,5.25-5,5.37-5,11.26-5.76,9.88-1.26,13.68-4.44,16.77-14.05,1.72-5.32,1.92-5.57,7.07-8.91,8.61-5.56,10.66-10,9.38-20.21l-.7-5.59,3.09-5.21c5.53-9.3,5.53-14,0-23.34L270.62,183l.7-5.6c1.28-10.21-.77-14.64-9.38-20.2-5.15-3.34-5.35-3.59-7.07-8.91-3.09-9.61-6.64-12.59-16.62-14-6.06-.84-6.19-.91-11.43-5.84-4.2-4-6-5.16-9-5.78-3.72-.8-4.07-.75-14.44,2.2-3.16.9-4.11.83-8.6-.6-7-2.24-8.47-2.43-12.31-1.6m141.64,7.77c-3,1.73-5.58,3.26-5.71,3.39s1,2.74,2.55,5.8l2.79,5.55,2.53-1.09c6.39-2.77,9.95-4.49,9.95-4.8,0-.78-5.84-12.08-6.23-12-.22,0-2.87,1.46-5.88,3.2m-132.27,7.31c6.79,2.45,9.43,2.45,16.78,0l5.88-2,5.22,4.92c5.4,5.1,9.07,6.84,14.39,6.84s6.57,1,8,6.25c1.78,6.34,4.85,10.37,10.72,14.08l4.84,3.07v17.63l3.41,5.66,3.41,5.65-3.41,5.65-3.41,5.65v17.64l-4.84,3.07c-5.87,3.71-8.94,7.74-10.72,14.08-1.46,5.23-2.78,6.25-8,6.25s-9,1.74-14.39,6.84l-5.22,4.92-5.88-2a37.78,37.78,0,0,0-8.34-2,37.9,37.9,0,0,0-8.34,2l-5.88,2L180.86,259c-5.4-5.1-9.06-6.84-14.39-6.84s-6.56-1-8-6.25c-1.78-6.34-4.85-10.37-10.71-14.08l-4.85-3.07V211.13l-3.41-5.65-3.41-5.65,3.41-5.65,3.41-5.66V170.89l4.85-3.07c5.86-3.71,8.93-7.74,10.71-14.08,1.47-5.23,2.79-6.25,8-6.25s9-1.74,14.29-6.8c2.8-2.68,5.22-4.88,5.39-4.9s2.73.86,5.71,1.93m2.58,10.66c-39.9,3.9-59.68,50.69-35.19,83.27,19.95,26.54,62.15,26.54,82.1,0,27.79-37-.84-87.77-46.91-83.27M72.12,151.23c9.18,6.84,4.52,22-6.78,22-7.22,0-12-4.28-12.49-11.26a12,12,0,0,1,19.27-10.78m261.14.51c-6.34,2.36-6.05,1.65-3.79,9.16a135.49,135.49,0,0,1,2.94,66.66c-.83,3.87-1.44,7.07-1.37,7.11s2.41.67,5.2,1.42,5.67,1.51,6.4,1.72c2.69.77,5.33-14.32,5.88-33.54s-.43-27.41-5.44-45.65c-2.72-9.94-2.33-9.66-9.82-6.88m-124.09,11c29.08,7.49,39,42.79,17.93,63.84s-56.35,11.14-63.84-17.93c-6.95-26.94,19-52.86,45.91-45.91M51.87,206.51v6.68l6.83-.53C67,212,66,213,65.42,205.82l-.5-6H51.87v6.68m6.48,17-4.84.78.45,2.43c22.09,119.25,172.7,163.71,254.66,75.18l5.15-5.56h8.3c28.54,0,37.6-36.39,12.18-48.9-23-11.33-47.79,16.14-33.53,37.16l2,2.91-3.47,4.07c-19.44,22.76-54.31,39.75-87.73,42.76-66.89,6-131-41.8-143.29-106.94-1-5.53-.63-5.37-9.86-3.89m68.31,36.7c2.6,2.8,2.62,6,.06,8.37-3.08,2.86-7.53,1.79-9.19-2.21-2.31-5.59,5-10.56,9.13-6.16m203.62.85a12.21,12.21,0,0,1-2.13,20.78c-12.12,5.86-23.44-9.45-14.32-19.38a12.54,12.54,0,0,1,16.45-1.4m-186.5,25.51L140.15,292l3,1.87c29.42,18.58,70.08,21,102.73,6.14,6.83-3.11,6.68-2.5,2.43-10.11-3-5.43-2.15-5.3-10.51-1.55-24.92,11.17-55.64,10-81.28-3.06-10-5.1-8.39-5.26-12.71,1.25m-30.42,65.11a18.52,18.52,0,0,1,2.81,29.51c-16.76,15.12-40.71-5.93-27.85-24.48,5.38-7.77,17-10.11,25-5m-17,15.76v6.64h14.06V360.77H96.4v6.64"/></svg>