<svg xmlns="http://www.w3.org/2000/svg" viewBox="0 0 1437 1437"><title>i-communion</title><path d="M764.5,123a598,598,0,0,1,185.57,45.27c147,61.85,261,177.23,321.22,324.89A599.06,599.06,0,0,1,1313,661.5h45.06A642.84,642.84,0,0,0,764.5,78Z"/><path d="M124,661.5a598.77,598.77,0,0,1,44.3-174.57c61.85-147,177.23-261,324.89-321.22a598.5,598.5,0,0,1,179.3-42.66v-45A642.94,642.94,0,0,0,78.91,661.5Z"/><path d="M672.5,1313.7a594.44,594.44,0,0,1-185.57-45c-147-61.85-261-177.23-321.22-324.89a597.8,597.8,0,0,1-43.42-190.3H77.37A642.85,642.85,0,0,0,672.5,1359Z"/><path d="M1314.72,753.5a597.46,597.46,0,0,1-46,196.57c-89.51,212.67-288.62,346.49-504.19,363.52v45.35A642.77,642.77,0,0,0,1359.65,753.5Z"/><path d="M718.5,824.52a106,106,0,1,1,106-106A106.14,106.14,0,0,1,718.5,824.52Zm0-167a61,61,0,1,0,61,61A61.08,61.08,0,0,0,718.5,657.48Z"/><path d="M720.29,899.82h-1.57A186.1,186.1,0,0,1,534,713.8c0-.51,0-1,0-1.53l45,.34v1.19c0,77.12,62.83,140.38,140.06,141h1.19c77.32,0,140.8-62.84,141.52-140.08v-.34l45,.36v.39A186.51,186.51,0,0,1,720.29,899.82Z"/><path d="M718.5,977.64a259.14,259.14,0,1,1,183.24-75.9A257.47,257.47,0,0,1,718.5,977.64Zm0-473.28c-118.08,0-214.14,96.06-214.14,214.14S600.42,932.64,718.5,932.64,932.64,836.58,932.64,718.5,836.58,504.36,718.5,504.36Z"/><path d="M954,957.74l-31.57-32.07a290.69,290.69,0,0,0,3.29-411l-.25-.26,32.12-31.51.21.21A335.44,335.44,0,0,1,954,957.74Zm-474.79-3.8a335.43,335.43,0,0,1,3.67-474.56l31.58,32.05a290.7,290.7,0,0,0-3.18,410.94l.18.19-16.13,15.73Z"/><path d="M718.5,1130.76A411,411,0,1,1,879,1098.35,409.62,409.62,0,0,1,718.5,1130.76Zm0-779.52C516,351.24,351.24,516,351.24,718.5S516,1085.76,718.5,1085.76,1085.76,921,1085.76,718.5,921,351.24,718.5,351.24Z"/><path d="M959.41,1143.92l-22.2-39.14c137.46-78,223.72-224.54,225.09-382.41v-.91l45,.27v1a488.61,488.61,0,0,1-247.89,421.15Zm-488.74-4a488.65,488.65,0,0,1-241-421.34c0-1.28,0-2.57,0-3.85l45,.36c0,1.16,0,2.32,0,3.49,0,156.43,83.85,303,218.83,382.57ZM943.09,335.61A443.68,443.68,0,0,0,722.37,274.7l-4,0a443.7,443.7,0,0,0-219,57.77l-22.25-39.12a488.77,488.77,0,0,1,241.28-63.65l4.35,0a488.76,488.76,0,0,1,243.12,67.11Z"/><path d="M718.5,1283.88a563.64,563.64,0,1,1,220.08-44.44A561.83,561.83,0,0,1,718.5,1283.88Zm0-1085.76c-286.94,0-520.38,233.44-520.38,520.38s233.44,520.38,520.38,520.38,520.38-233.44,520.38-520.38S1005.44,198.12,718.5,198.12Z"/><path d="M718.5,1437A718.68,718.68,0,0,1,438.82,56.47,718.68,718.68,0,0,1,998.18,1380.53,714.07,714.07,0,0,1,718.5,1437Zm0-1392C347.13,45,45,347.13,45,718.5S347.13,1392,718.5,1392,1392,1089.87,1392,718.5,1089.87,45,718.5,45Z"/></svg>