<svg xmlns="http://www.w3.org/2000/svg" viewBox="0 0 1989.06 1978.23"><title>i-history</title><path d="M1468.37,807.13h0c34.9-60.45,33.95-58.81,33.95-58.83L949.15,428.92l-34,58.83c-60.41,104.63,92.12,470,92.13,470S1417.6,895.06,1468.37,807.13Z"/><path d="M843.32,1245.85s-340.13-65.22-364.74-22.6l-38.06,65.91,571.13,329.75,38.06-65.91C1077.34,1505.14,843.32,1245.85,843.32,1245.85Z"/><path d="M1271.42,1851.53l214.18-371c17.43-38.36,10.38-79.84-20.19-97.48-33.22-19.19-77-.25-100.56,40.62l-208.51,361.16-41.81-24.14,107.12-185.54c84.86-147,27.19-355.45-11.55-460.31,111.19-22.17,324.37-81.51,404-219.35l108.7-188.27,41.81,24.13L1550.75,1101.7c-17.43,38.35-10.37,79.84,20.19,97.48,33.22,19.19,77,.25,100.57-40.62L1880,797.4l4,2.34c38.35,17.44,79.84,10.38,97.48-20.19,19.19-33.22.25-77-40.62-100.56l-101-58.33-949-547.88-101-58.33C749-9.15,701.7-3.66,682.52,29.56c-17.65,30.57-3,70,31.24,94.5l4.92,2.84L504.6,497.7c-17.44,38.35-10.38,79.84,20.18,97.48,33.23,19.19,77,.25,100.57-40.62L833.58,193.88l28.1,16.23L753,398.37c-81.49,141.15-22.5,357,14.8,463.39-33.92,6.74-78.4,16.53-124.85,31.14-141.53,44.59-237,106.61-282.36,185.15L253.45,1263.58l-28.09-16.22,214.08-370.8c17.44-38.36,10.38-79.84-20.19-97.48-33.22-19.19-77-.25-100.56,40.62L110.11,1181C70.39,1160.47,26,1166.77,7.52,1198.7c-17.65,30.56-3,70,31.24,94.5l99.93,57.69a77.41,77.41,0,0,0,10.24,7.08l949,547.88a77.25,77.25,0,0,0,11.25,5.33l99.92,57.69c38.35,17.44,79.84,10.38,97.48-20.18C1324.84,1917,1308.44,1875.75,1271.42,1851.53ZM463.37,1137.39C528.26,1025,766.5,971,853.73,960.28c17-2,30.73-12.71,39.1-27.51s11.08-31.65,4.1-47.32c-35.19-79.05-109.65-309.09-41.15-427.74l108.7-188.27,668.3,385.85-108.7,188.27c-66.85,115.8-303.39,169.14-389.8,179.35-17.34,2-31.29,12.93-39.64,28.08s-10.75,32.37-3.23,48.13c36.16,75.91,112.39,299.21,40.28,424.11l-107.13,185.55-668.3-385.85Z"/><circle cx="1518.18" cy="1291.13" r="66.5"/><circle cx="472.02" cy="687.13" r="66.5"/></svg>